<svg width="161" height="176" viewBox="0 0 161 176" fill="none" xmlns="http://www.w3.org/2000/svg">
<path d="M80.3744 0C77.7584 0 75.142 0.585565 73.1157 1.75669L8.41383 39.1415C4.36025 41.4837 4.36025 45.1875 8.41383 47.5298L73.1157 84.9145C77.1692 87.2568 83.5791 87.2568 87.6323 84.9145L152.334 47.5298C156.388 45.1879 156.388 41.4837 152.334 39.1419L87.6323 1.75712C85.6055 0.585142 82.99 0 80.3744 0ZM80.0254 22.4706C83.843 22.5117 87.2757 23.3854 90.3224 25.0904C92.4064 26.2573 93.7716 27.588 94.4166 29.0836C95.0406 30.5674 95.0774 32.5234 94.5268 34.9498L93.8491 37.364C93.4001 39.0915 93.3069 40.3342 93.5695 41.0915C93.8109 41.8378 94.4094 42.4784 95.3663 43.014L96.8022 43.8171L82.7248 51.6951L81.1606 50.8206C79.4163 49.8449 78.304 48.7423 77.8215 47.512C77.3183 46.2702 77.4022 44.2952 78.0731 41.5865L78.7187 39.1546C79.0944 37.7063 79.1308 36.5187 78.8288 35.5929C78.5522 34.652 77.9249 33.9078 76.9464 33.3603C75.4576 32.5268 73.6739 32.2281 71.5967 32.462C69.4975 32.6846 67.3305 33.4216 65.0949 34.6727C62.9889 35.851 61.0765 37.3264 59.3555 39.0983C57.6138 40.8592 56.1194 42.874 54.8712 45.1435L44.8537 39.5366C47.1062 37.2773 49.3194 35.3014 51.4936 33.6078C53.6682 31.9154 55.964 30.3923 58.3817 29.0383C64.7251 25.4886 70.6242 23.3773 76.0785 22.7059C77.3876 22.5378 78.7057 22.4595 80.0254 22.4706ZM101.525 46.4602L112.883 52.8168L98.8053 60.6948L87.4468 54.3386L101.525 46.4602ZM4.0934 54.6115C1.65659 54.546 0 56.4461 0 59.8071V126.528C0 131.204 3.20644 136.751 7.26002 139.089L69.4954 174.988C73.549 177.326 76.7554 175.477 76.7554 170.802V104.08C76.7554 99.4039 73.549 93.8579 69.4954 91.519L7.26002 55.6206C6.12061 54.9627 5.04686 54.6369 4.0934 54.6115ZM156.907 54.6124C155.954 54.6378 154.881 54.9636 153.741 55.6215L91.5033 91.5199C87.4498 93.8583 84.2433 99.4056 84.2433 104.082V170.804C84.2433 175.479 87.4498 177.327 91.5033 174.988L153.741 139.091C157.795 136.753 161 131.206 161 126.53V59.808C161 56.4478 159.344 54.5472 156.907 54.6124ZM20.7093 81.5856C23.4849 82.1635 26.02 82.871 28.3141 83.7066C30.6138 84.5452 32.836 85.5821 34.9557 86.8058C40.5523 90.034 44.819 93.7124 47.7552 97.841C50.6914 101.945 52.1595 106.322 52.1595 110.974C52.1595 113.36 51.7126 115.245 50.8176 116.628C49.923 117.987 48.3973 119.129 46.2413 120.053L44.0387 120.865C42.4792 121.475 41.4579 122.104 40.9763 122.752C40.4947 123.375 40.2541 124.234 40.2541 125.329V126.973L27.8329 119.809V118.019C27.8329 116.022 28.2107 114.475 28.9681 113.378C29.725 112.256 31.3197 111.203 33.751 110.219L35.9536 109.37C37.2612 108.858 38.2129 108.214 38.8093 107.438C39.4277 106.675 39.7378 105.733 39.7378 104.613C39.7378 102.909 39.1872 101.264 38.0859 99.6797C36.9846 98.0703 35.4483 96.6969 33.4753 95.5588C31.6171 94.4875 29.6098 93.7437 27.4534 93.3282C25.2974 92.8882 23.0491 92.7976 20.7093 93.0553V81.5856ZM134.879 85.2272C135.523 85.2272 136.121 85.297 136.671 85.4358C139.608 86.1533 141.076 88.8375 141.076 93.489C141.076 95.8752 140.628 98.2759 139.734 100.691C138.839 103.082 137.313 105.983 135.157 109.394L132.955 112.746C131.395 115.156 130.374 116.961 129.892 118.165C129.411 119.343 129.17 120.48 129.17 121.576V123.22L116.749 130.384V128.594C116.749 126.597 117.128 124.613 117.884 122.642C118.642 120.648 120.236 117.756 122.667 113.967L124.87 110.578C126.177 108.558 127.129 106.815 127.725 105.351C128.344 103.874 128.654 102.575 128.654 101.455C128.654 99.7504 128.103 98.7409 127.003 98.4261C125.902 98.0876 124.364 98.4862 122.391 99.6234C120.533 100.695 118.527 102.268 116.37 104.339C114.214 106.387 111.966 108.888 109.626 111.845V100.374C112.402 97.7513 114.936 95.5342 117.229 93.7242C119.524 91.9142 121.738 90.3945 123.871 89.1645C128.419 86.5413 132.087 85.2293 134.879 85.2272ZM27.8325 125.216L40.2541 132.379V145.383L27.8329 138.22L27.8325 125.216ZM129.17 128.626V141.63L116.749 148.793V135.79L129.17 128.626Z" fill="black"/>
</svg>
