<svg width="16" height="16" viewBox="0 0 16 16" fill="none" xmlns="http://www.w3.org/2000/svg">
<g clip-path="url(#clip0_139_298)">
<path d="M8.00004 14.6667C11.682 14.6667 14.6667 11.682 14.6667 8.00004C14.6667 4.31804 11.682 1.33337 8.00004 1.33337C4.31804 1.33337 1.33337 4.31804 1.33337 8.00004C1.33337 11.682 4.31804 14.6667 8.00004 14.6667Z" stroke="black" stroke-opacity="0.6" stroke-linecap="round" stroke-linejoin="round"/>
<path d="M8 9.99976C8.53043 9.99976 9.03914 9.78904 9.41421 9.41397C9.78929 9.0389 10 8.53019 10 7.99976C10 7.46932 9.78929 6.96061 9.41421 6.58554C9.03914 6.21047 8.53043 5.99976 8 5.99976C7.46957 5.99976 6.96086 6.21047 6.58579 6.58554C6.21071 6.96061 6 7.46932 6 7.99976C6 8.53019 6.21071 9.0389 6.58579 9.41397C6.96086 9.78904 7.46957 9.99976 8 9.99976V9.99976Z" stroke="black" stroke-opacity="0.6" stroke-linecap="round" stroke-linejoin="round"/>
<path d="M1.33325 7.99988H5.99992M9.99992 7.99988H14.6666" stroke="black" stroke-opacity="0.6"/>
</g>
<defs>
<clipPath id="clip0_139_298">
<rect width="16" height="16" fill="white"/>
</clipPath>
</defs>
</svg>
